<?xml version="1.0" standalone="no"?>
<!DOCTYPE svg PUBLIC "-//W3C//DTD SVG 20010904//EN"
 "http://www.w3.org/TR/2001/REC-SVG-20010904/DTD/svg10.dtd">
<svg version="1.0" xmlns="http://www.w3.org/2000/svg"
 width="1044.000000pt" height="1280.000000pt" viewBox="0 0 1044.000000 1280.000000"
 preserveAspectRatio="xMidYMid meet">
<metadata>
Created by potrace 1.15, written by Peter Selinger 2001-2017
</metadata>
<g transform="translate(0.000000,1280.000000) scale(0.100000,-0.100000)"
fill="#000000" stroke="none">
<path d="M4860 12789 c-175 -20 -330 -68 -425 -132 -270 -182 -586 -696 -707
-1151 -15 -57 -22 -112 -22 -186 -1 -103 0 -107 43 -205 24 -55 58 -143 76
-195 18 -52 83 -223 145 -380 143 -363 184 -488 215 -656 30 -160 33 -332 9
-434 -21 -90 -79 -174 -230 -330 -138 -143 -147 -163 -76 -168 104 -8 221 56
289 156 167 244 228 465 189 673 -33 174 -216 680 -342 944 -182 381 -208 492
-165 712 36 181 103 355 233 600 103 195 165 286 269 390 149 151 308 240 566
319 67 21 120 41 117 46 -6 10 -81 9 -184 -3z"/>
<path d="M4903 12347 c-16 -17 -74 -88 -128 -157 -137 -175 -200 -232 -461
-422 -226 -163 -269 -198 -245 -198 36 0 342 137 449 201 29 18 24 10 -25 -35
-87 -80 -118 -146 -118 -251 0 -72 3 -86 34 -143 19 -35 53 -79 75 -98 22 -19
38 -34 35 -34 -2 0 -31 11 -64 25 -97 40 -157 31 -235 -34 -19 -16 -44 -44
-54 -62 l-19 -33 31 22 c54 39 115 62 168 62 66 0 163 -34 499 -175 60 -25 27
2 -70 60 -44 26 -71 44 -60 41 107 -29 274 -36 375 -16 185 38 328 135 385
261 23 53 27 71 23 138 -4 96 -33 157 -105 227 -109 105 -262 158 -458 158
-133 0 -208 -16 -315 -64 -67 -31 -65 -28 14 27 62 44 135 145 206 288 55 110
105 234 97 241 -2 2 -17 -11 -34 -29z"/>
<path d="M5227 12298 c10 -44 72 -163 104 -202 18 -21 59 -56 91 -77 58 -37
265 -129 323 -143 l29 -7 -19 22 c-11 12 -94 81 -185 154 -91 73 -201 165
-245 204 -84 75 -107 86 -98 49z"/>
<path d="M6047 11580 c5 -58 8 -211 8 -340 0 -214 -2 -242 -23 -315 -31 -109
-88 -260 -195 -515 -142 -339 -158 -381 -154 -393 8 -24 161 195 278 398 88
154 168 327 190 414 39 152 14 421 -67 729 -36 140 -46 146 -37 22z"/>
<path d="M5473 11210 c-100 -35 -452 -224 -441 -236 3 -2 78 27 169 65 221 91
310 121 367 121 49 0 111 -24 164 -61 27 -20 29 -20 20 -3 -19 34 -96 103
-134 119 -47 19 -80 18 -145 -5z"/>
<path d="M4274 10795 c66 -62 158 -108 213 -107 49 0 121 22 216 65 114 51
101 56 -166 68 -117 5 -234 12 -262 15 l-50 5 49 -46z"/>
<path d="M5083 10776 c59 -56 158 -106 208 -106 69 0 289 83 289 110 0 14 -48
19 -245 25 -99 3 -207 8 -240 11 l-60 5 48 -45z"/>
<path d="M4927 10583 c67 -142 105 -242 101 -266 -4 -26 -67 -63 -122 -73 -33
-5 -37 -8 -21 -17 21 -11 145 -3 193 14 27 9 32 16 32 42 0 18 -13 59 -29 93
-31 67 -145 259 -169 287 -34 38 -29 12 15 -80z"/>
<path d="M4826 10119 c-74 -25 -196 -106 -196 -129 0 -4 60 9 133 27 103 27
143 33 183 28 86 -10 184 -45 184 -64 0 -12 -51 -18 -289 -36 -239 -18 -250
-23 -120 -50 131 -28 222 -29 339 -5 123 25 200 56 200 79 0 35 -175 128 -293
156 -77 18 -70 18 -141 -6z"/>
<path d="M4762 9505 c-211 -51 -369 -210 -388 -391 -22 -210 137 -405 382
-468 78 -20 241 -21 314 -1 211 56 351 194 383 378 20 119 -34 261 -137 353
-56 51 -165 107 -251 129 -71 18 -229 18 -303 0z"/>
<path d="M6390 8640 c0 -8 314 -119 395 -141 39 -10 117 -27 174 -38 307 -58
405 -187 761 -996 73 -165 186 -415 250 -555 392 -850 693 -1562 799 -1894 39
-122 50 -235 28 -288 -44 -105 -214 -122 -524 -52 -327 73 -606 172 -1313 467
-458 191 -515 217 -880 407 -179 93 -354 180 -390 194 -90 33 -150 41 -175 22
-20 -14 -20 -14 1 -43 52 -70 363 -242 1109 -612 945 -471 1053 -513 1529
-606 131 -25 294 -64 362 -85 69 -22 133 -40 143 -40 33 0 195 62 230 88 126
93 90 356 -151 1092 -110 337 -264 756 -343 935 -121 273 -293 607 -523 1015
-86 151 -187 330 -225 398 -38 68 -96 185 -130 260 -88 198 -118 244 -205 304
-92 63 -268 112 -517 143 -139 17 -405 33 -405 25z"/>
<path d="M2958 8608 c-134 -8 -420 -76 -530 -126 -153 -70 -253 -183 -307
-347 -17 -52 -45 -184 -66 -310 -96 -587 -112 -636 -460 -1370 -356 -752 -426
-963 -442 -1330 -6 -151 5 -284 38 -448 49 -246 116 -333 263 -344 85 -7 154
16 386 129 249 121 294 138 578 219 254 73 315 96 326 126 18 47 -99 122 -206
130 -89 7 -145 -11 -388 -127 -125 -60 -246 -110 -310 -129 -58 -17 -139 -42
-180 -56 -43 -15 -107 -29 -150 -31 -64 -5 -80 -2 -108 16 -135 85 -154 638
-36 1048 54 186 120 317 379 752 339 569 377 671 480 1275 50 295 63 358 97
455 65 183 106 239 216 291 133 63 230 87 527 129 83 11 161 25 175 29 24 8
24 9 -10 14 -61 11 -152 12 -272 5z"/>
<path d="M4872 8468 c-24 -31 -54 -106 -112 -283 -228 -700 -213 -665 -320
-763 -63 -58 -87 -88 -117 -149 -37 -75 -38 -80 -38 -187 0 -99 3 -117 26
-166 14 -30 49 -83 77 -118 45 -57 51 -70 57 -128 9 -76 1 -122 -30 -191 -45
-100 -181 -216 -333 -285 -153 -69 -529 -199 -951 -329 -337 -104 -469 -153
-642 -239 -105 -53 -139 -75 -139 -93 0 -25 469 78 785 173 296 90 828 302
1109 442 159 80 238 130 285 184 53 60 71 118 71 225 l0 88 57 -20 c31 -10 96
-24 145 -31 80 -10 89 -14 94 -35 4 -13 4 -89 2 -171 -7 -195 -17 -223 -117
-322 -56 -55 -111 -96 -211 -154 -212 -124 -226 -134 -380 -258 -169 -135
-244 -208 -216 -208 18 0 372 173 391 191 5 5 12 9 16 9 4 0 -13 -22 -39 -48
-26 -27 -60 -75 -77 -108 -26 -53 -29 -69 -30 -154 0 -87 3 -101 32 -160 57
-115 172 -206 328 -257 72 -24 95 -27 225 -27 131 0 153 3 225 27 158 53 273
145 331 265 24 49 28 70 29 147 0 83 -3 96 -34 158 -64 131 -201 230 -376 273
-125 31 -300 22 -430 -21 -11 -4 10 11 46 33 204 122 333 232 370 317 22 51
34 146 44 365 l7 146 52 12 c28 6 90 31 137 55 l87 43 10 -80 c13 -98 35 -152
96 -233 134 -178 408 -370 641 -450 274 -93 1057 -249 1004 -199 -9 8 -288
109 -574 206 -310 105 -553 200 -711 275 -71 34 -103 57 -146 104 -85 91 -93
119 -142 479 -12 89 -12 109 1 153 10 33 14 80 11 137 -4 112 -40 193 -127
286 -34 36 -61 68 -61 71 0 3 -15 65 -34 138 -19 73 -55 245 -80 382 -54 294
-65 345 -76 345 -17 0 -23 -55 -27 -272 -5 -240 4 -353 37 -459 17 -55 17 -60
2 -54 -92 35 -303 47 -400 21 -29 -7 -52 -9 -52 -4 0 5 45 122 99 261 141 357
152 394 158 513 6 108 -3 144 -36 144 -10 0 -23 -6 -29 -12z"/>
<path d="M3692 8372 c11 -116 89 -218 190 -246 122 -35 590 -85 566 -60 -4 3
-75 26 -160 50 -84 25 -176 55 -204 68 -27 13 -119 73 -203 135 -85 61 -163
111 -174 111 -18 0 -19 -5 -15 -58z"/>
<path d="M6228 8387 c-220 -179 -324 -261 -370 -291 -75 -50 -148 -66 -295
-66 -68 0 -123 -4 -123 -9 0 -25 210 -91 312 -98 112 -8 152 10 253 112 124
124 319 395 286 395 -6 0 -34 -19 -63 -43z"/>
<path d="M3371 7964 c0 -513 -1 -516 -311 -1354 -134 -362 -146 -400 -131
-400 32 0 250 353 360 580 86 181 119 271 137 380 18 113 18 427 -1 645 -15
169 -43 396 -50 403 -2 2 -4 -112 -4 -254z"/>
<path d="M7035 6823 c16 -68 382 -765 473 -902 l37 -56 3 35 c5 45 -12 126
-55 275 -75 261 -137 367 -323 557 -118 121 -148 141 -135 91z"/>
<path d="M6467 4741 c-12 -49 39 -555 78 -762 68 -366 222 -870 332 -1088 86
-173 160 -267 182 -233 17 27 -18 163 -189 737 -118 399 -272 936 -330 1154
-23 85 -47 168 -54 185 -12 30 -13 30 -19 7z"/>
<path d="M3039 4624 c-8 -21 -8 -85 0 -239 6 -116 11 -288 11 -384 0 -205 -17
-303 -104 -606 -133 -464 -245 -910 -232 -923 21 -20 212 355 305 599 183 483
272 800 272 971 0 176 -117 496 -215 587 l-25 24 -12 -29z"/>
<path d="M4780 4174 c-300 -54 -500 -262 -500 -519 0 -135 64 -275 168 -365
64 -56 192 -117 282 -136 151 -32 334 -2 468 78 183 109 287 317 253 508 -44
246 -270 424 -551 435 -52 2 -106 2 -120 -1z"/>
<path d="M5550 3120 c-702 -102 -771 -104 -1431 -45 -397 35 -479 38 -479 16
0 -22 196 -95 380 -141 221 -55 380 -70 752 -70 431 0 589 21 878 116 166 55
351 138 358 162 7 22 -110 12 -458 -38z"/>
<path d="M7845 2634 c-107 -16 -215 -65 -398 -181 -153 -97 -215 -127 -306
-147 -114 -25 -201 -30 -292 -17 -119 17 -168 33 -399 126 -292 119 -331 129
-470 130 -132 0 -200 -18 -256 -68 -46 -40 -58 -65 -94 -198 -38 -140 -67
-185 -140 -221 -30 -14 -68 -29 -84 -33 -25 -5 -28 -4 -21 12 35 86 31 194
-13 286 -97 208 -395 333 -677 283 -206 -35 -353 -133 -431 -286 -25 -49 -29
-66 -29 -150 0 -82 4 -103 26 -150 55 -118 177 -215 334 -267 70 -23 97 -27
220 -27 121 -1 150 2 215 23 41 13 98 24 127 25 70 2 159 49 410 217 291 194
285 189 326 267 43 82 61 92 165 92 94 0 144 -12 437 -100 352 -106 460 -131
600 -137 188 -8 249 14 557 200 163 99 235 132 328 149 144 27 377 -32 781
-197 101 -41 185 -73 187 -71 8 8 -195 121 -371 207 -364 176 -602 252 -732
233z"/>
<path d="M2410 2353 c-106 -17 -425 -53 -510 -58 -145 -8 -269 -25 -307 -41
-45 -18 -44 -52 4 -105 44 -49 102 -84 164 -99 59 -15 107 -6 329 62 228 69
275 78 428 78 218 0 421 -37 737 -134 115 -36 211 -63 213 -61 15 15 -350 203
-541 280 -149 59 -272 85 -397 84 -52 -1 -106 -4 -120 -6z"/>
<path d="M9330 1906 c0 -3 98 -71 219 -150 558 -370 631 -456 631 -747 0 -145
-65 -494 -106 -569 -45 -83 -124 -129 -294 -174 -191 -50 -300 -61 -620 -60
-415 1 -561 17 -2015 219 -780 109 -1027 137 -1335 156 -238 14 -646 9 -675
-8 -19 -11 -19 -12 6 -22 49 -18 103 -30 254 -55 535 -90 2301 -324 3175 -420
491 -54 677 -68 920 -70 263 -1 320 9 410 74 30 22 96 69 146 104 217 155 370
399 390 625 15 167 -83 443 -221 620 -90 116 -199 195 -432 310 -217 108 -453
195 -453 167z"/>
<path d="M640 1747 c-223 -112 -418 -246 -488 -335 -47 -58 -107 -194 -128
-287 -22 -95 -24 -264 -5 -345 33 -136 125 -266 273 -385 169 -135 406 -256
579 -294 168 -37 775 -65 1004 -46 149 12 125 17 -382 71 -350 37 -622 88
-745 140 -148 62 -345 222 -444 360 -58 80 -111 195 -124 266 -21 110 21 249
127 425 125 209 188 279 387 428 67 51 83 65 73 65 -1 0 -59 -28 -127 -63z"/>
<path d="M6634 1619 c-244 -192 -398 -285 -554 -334 -47 -14 -197 -51 -335
-81 -398 -87 -511 -119 -1025 -293 -718 -242 -1519 -536 -1554 -571 -15 -15
76 -13 180 5 321 55 515 112 1143 337 819 292 869 308 1258 397 464 107 552
145 767 335 107 95 279 297 264 311 -2 2 -67 -45 -144 -106z"/>
</g>
</svg>
